<?xml version="1.0" encoding="utf-8"?>
<!-- Generator: Adobe Illustrator 21.1.0, SVG Export Plug-In . SVG Version: 6.00 Build 0)  -->
<svg version="1.1" id="Слой_1" xmlns="http://www.w3.org/2000/svg" xmlns:xlink="http://www.w3.org/1999/xlink" x="0px" y="0px"
	 viewBox="0 0 26.8 27" style="enable-background:new 0 0 26.8 27;" xml:space="preserve">
<style type="text/css">
	.st0{fill:#E14660;}
</style>
<path class="st0" d="M9.4,0.5L19,25.7c0.1,0.4,0,0.8-0.5,1.1l0,0c-0.4,0.1-0.8,0-1.1-0.5L7.8,1.1C7.7,0.7,7.9,0.3,8.3,0l0,0
	C8.7-0.1,9.2,0.1,9.4,0.5z"/>
<path class="st0" d="M26,8.7L1.4,19.6c-0.4,0.2-0.9,0-1-0.4l0,0c-0.2-0.4,0-0.9,0.4-1L25.4,7.2c0.4-0.2,0.9,0,1,0.4l0,0
	C26.6,8,26.5,8.6,26,8.7z"/>
</svg>
